<?xml version="1.0" encoding="utf-8"?>
<!-- Generator: Adobe Illustrator 23.0.1, SVG Export Plug-In . SVG Version: 6.00 Build 0)  -->
<svg version="1.1" id="Layer_1" xmlns="http://www.w3.org/2000/svg" xmlns:xlink="http://www.w3.org/1999/xlink" x="0px" y="0px"
	 viewBox="0 0 1404.25 1015.43" style="enable-background:new 0 0 1404.25 1015.43;" xml:space="preserve">
<style type="text/css">
	.st0{fill:#019040;}
	.st1{fill:#029041;}
	.st2{fill:#FEFEFE;}
	.st3{fill:#FCFDFD;}
</style>
<g>
	<path class="st0" d="M662.7,1015.18c-4.92-6.23-10.48-12.06-14.65-18.76c-11.97-19.19-23.37-38.74-35.02-58.13
		c-9.69-16.12-18.99-32.51-32.56-45.91c-1.01-1-1.35-3.33-1.08-4.89c5.67-32.62,11.89-65.15,17.1-97.84
		c3.3-20.69,5.15-41.6,7.66-62.41c-0.51-0.23-1.02-0.45-1.53-0.68c-1.07,1.46-2.33,2.81-3.17,4.39
		c-12.48,23.29-24.98,46.57-37.32,69.93c-10.32,19.55-20.39,39.23-30.69,58.79c-1.85,3.51-4.26,6.73-6.88,10.81
		c-6.43-7.31-13.14-13.84-18.53-21.31c-9.42-13.06-18.78-26.28-26.82-40.21c-12.96-22.47-15.45-45.97-7.9-71.57
		c10.84-36.72,24.76-71.62,47.77-102.49c0.87-1.17,1.57-2.46,2.71-4.27c-38.89-6.83-75.69-18.31-110.54-37.77
		c13.96-1.01,27.01-1.7,40-2.96c13.11-1.27,25.93-4.06,39.04-9.57c-96.76-31.55-184.23-78.23-260.56-145.09
		c59.69,7.85,119.16,17.05,179.38,18.98c0.1-0.41,0.19-0.82,0.29-1.23c-9.99-2.68-19.9-5.77-29.99-7.97
		c-24.7-5.38-49.63-9.78-74.21-15.63c-38.36-9.12-73.2-26.65-107.49-45.74c-22.96-12.78-41.03-29.99-54.63-52.1
		c-12.37-20.1-24.27-40.49-37.21-62.13c3.15,0.89,4.94,1.25,6.64,1.89c39.81,15,79.62,30,119.41,45.05
		c37.05,14.01,74.41,26.97,113.54,34c4.07,0.73,8.17,1.34,12.68,0.9c-1.77-0.75-3.51-1.55-5.3-2.24
		c-45.42-17.68-90.19-36.81-133.16-59.94c-51.03-27.47-98.43-59.85-138.28-102.41c-21.05-22.48-39.72-46.82-53.52-74.37
		C17.34,91.23,7.24,69.76,2.62,46.35c-2.95-14.93-2.06-29.5,5.4-43.19C8.55,2.18,9.18,1.25,9.95,0
		c8.53,6.29,16.79,12.43,25.11,18.49c98.78,71.94,203.64,133.36,315.02,183.78c43.49,19.69,86.2,41.17,124.97,69.5
		c29.6,21.63,55.57,46.74,73.98,78.87c16.11,28.13,24.85,58.68,29.07,90.63c5.41,40.93,3.24,81.8-1.37,122.63
		c-0.17,1.54,0.25,3.88,1.29,4.71c25.79,20.52,52.97,38.71,85.03,48.12c35.06,10.3,68.79,5.57,101.56-9.49
		c22.2-10.2,42.51-23.46,61.89-38.21c1.38-1.05,2.26-3.89,2.05-5.74c-4.36-37.84-6.11-75.69-2.29-113.71
		c7.1-70.72,38.2-127.84,95.08-171.01c33.35-25.3,69.75-45.2,107.17-63.48c43.16-21.09,86.88-41.12,129.48-63.3
		c80.18-41.75,155.43-91.46,228.48-144.58c2.29-1.66,5.26-2.96,8.03-3.25c5.45-0.57,9.41,2.03,9.58,7.78
		c0.3,10.38,0.43,21.06-1.59,31.17c-10.11,50.57-34.73,93.88-68.36,132.38c-37.92,43.41-83.64,77-133.29,105.67
		c-41.32,23.86-85.3,41.93-129.31,59.94c-8.27,3.39-16.53,6.8-25.35,10.43c11.38,1.06,80.73-11.76,127.9-24.58
		c41.66-11.33,82.98-23.95,125.68-36.36c-10.79,15-20.95,29.67-31.65,43.92c-21.88,29.14-52.3,46.11-85.28,59.54
		c-38.89,15.83-79.22,27.12-119.36,39.07c-20.39,6.07-40.63,12.63-60.93,18.98c-1.23,0.38-2.42,0.88-3.53,1.83
		c59.19-1.87,117.62-10.65,176.32-18.59c-36.6,32.87-76.74,60.64-119.65,84.48c-43,23.89-87.99,43.24-136,59
		c26.7,11.99,54.08,13.02,81.74,14.11c-18.11,10.98-37.44,19.37-57.75,25.14c-20.25,5.76-40.83,10.33-61.43,15.46
		c0.43,0.88,1.24,2.66,2.15,4.39c17.17,32.86,34.61,65.59,48.22,100.16c1.76,4.48,3.23,9.08,4.6,13.7c3,10.07,2.55,19.97-1.38,29.81
		c-11.82,29.61-27.65,56.79-48.36,81.08c-2.03,2.38-4.32,4.56-7.33,7.71c-6.93-12.19-13.92-23.5-19.95-35.3
		c-12.72-24.86-24.65-50.13-37.5-74.93c-6-11.57-13.38-22.43-20.14-33.61c-0.61,0.23-1.21,0.46-1.82,0.69
		c0.88,7.76,1.47,15.57,2.69,23.28c6.48,40.92,13.09,81.82,19.72,122.72c0.93,5.74,4,11.86,2.78,17.02c-1.15,4.85-7.1,8.39-10.19,13
		c-9.73,14.5-19.31,29.1-28.59,43.9c-11.13,17.76-21.74,35.84-32.89,53.58c-3.32,5.29-7.7,9.92-11.6,14.85
		c-0.49-0.07-0.99-0.14-1.48-0.21c-2-8.92-4.46-17.77-5.92-26.78c-5.86-36.31-11.03-72.73-17.22-108.98
		c-3.92-22.93-9.18-45.62-13.91-68.41c-0.43-2.05-1.3-4.02-2.4-5.98c-16.67,69.17-20.58,140.53-37.53,209.53
		C663.68,1014.79,663.19,1014.99,662.7,1015.18z M359.48,352.45c0.32,0.09,0.59,0.2,0.86,0.23c0.12,0.01,0.25-0.14,0.38-0.21
		c-0.22-0.12-0.42-0.33-0.65-0.35C359.9,352.1,359.71,352.31,359.48,352.45z"/>
	<path class="st0" d="M866.68,255.29c-6.18-9.41-14.9-11.84-23.86-13.15c-20.42-2.98-40.84-1.01-62.22,0.52
		c2.07,8.8,3.41,17.35,6.13,25.44c4.49,13.37,9.8,26.47,14.91,39.63c0.92,2.36,1.28,3.85-0.92,5.95
		c-31.94,30.48-63.76,61.09-95.62,91.67c-0.58,0.56-1.2,1.06-2.1,1.84c-30.56-35.18-63.39-67.71-99.56-96.72
		c3.26-11.89,6.49-23.7,9.73-35.5c4.79-17.46,8.52-35.31,14.58-52.32c18.06-50.7,54.71-75.87,108.64-76.05
		c28.73-0.1,55.82,6.34,80.59,21.01c6.29,3.73,11.85,9.07,16.9,14.47c11.17,11.93,21.33,24.72,28.65,39.48
		c4.19,8.45,7.14,17.24,5.71,26.9C867.96,250.37,867.4,252.23,866.68,255.29z"/>
	<path class="st1" d="M628.32,521.88c0-9.65,0-19.11,0-28.96c10.19-1.02,18.85-5.03,24.23-14.23c5.4-9.22,5.16-18.66,0.21-28.69
		c8.26-4.81,16.53-9.63,25.15-14.65c6.16,8.7,14.15,14.09,25.03,14.02c10.68-0.07,18.72-5.04,24.83-14.17
		c8.44,4.79,16.77,9.51,25.42,14.41c-4.7,9.49-5.21,18.96,0.01,28.21c5.26,9.32,13.6,13.8,24.56,14.48c0,9.66,0,19.34,0,29.03
		c-20.8,1.72-34.57,20.78-24.6,43.06c-8.25,4.79-16.53,9.6-24.78,14.39c-14.04-19.7-38.48-17.28-49.89,0.15
		c-8.29-4.7-16.6-9.41-25.28-14.33c4.66-9.61,5.07-19.24-0.37-28.54C647.46,526.82,638.94,522.58,628.32,521.88z M733.36,507.29
		c0.04-16.81-13.19-30.26-29.85-30.33c-16.87-0.07-30.4,13.06-30.53,29.65c-0.13,17.11,13.05,30.45,30.1,30.47
		C720.02,537.1,733.32,524,733.36,507.29z"/>
	<path class="st2" d="M359.48,352.45c0.23-0.14,0.42-0.35,0.59-0.33c0.23,0.02,0.43,0.22,0.65,0.35c-0.13,0.08-0.26,0.23-0.38,0.21
		C360.07,352.65,359.8,352.54,359.48,352.45z"/>
	<path class="st3" d="M733.36,507.29c-0.04,16.71-13.35,29.81-30.27,29.79c-17.05-0.02-30.23-13.36-30.1-30.47
		c0.13-16.58,13.66-29.72,30.53-29.65C720.18,477.03,733.41,490.47,733.36,507.29z"/>
</g>
</svg>
