<?xml version="1.0" encoding="utf-8"?>
<!-- Generator: Adobe Illustrator 24.3.0, SVG Export Plug-In . SVG Version: 6.00 Build 0)  -->
<svg version="1.1" id="Layer_1" xmlns="http://www.w3.org/2000/svg" xmlns:xlink="http://www.w3.org/1999/xlink" x="0px" y="0px"
	 viewBox="0 0 1404.3 238.4" style="enable-background:new 0 0 1404.3 238.4;" xml:space="preserve">
<style type="text/css">
	.st0{fill:#019040;}
	.st1{fill:#029041;}
	.st2{fill:#FEFEFE;}
	.st4{enable-background:new    ;}
	.st5{fill:none;stroke:#757575;stroke-width:4;stroke-miterlimit:10;}
</style>
<g>
	<path class="st0" d="M358,165.6c-0.8-1-1.7-1.9-2.4-3c-1.9-3.1-3.8-6.2-5.6-9.3c-1.6-2.6-3-5.2-5.3-7.3c-0.1-0.1-0.2-0.5-0.1-0.8
		c0.9-5.3,1.9-10.5,2.7-15.7c0.5-3.3,0.8-6.7,1.3-10c-0.1,0-0.1-0.1-0.2-0.1c-0.1,0.2-0.4,0.4-0.5,0.7c-2,3.7-4,7.5-6,11.3
		c-1.6,3.1-3.3,6.3-5,9.4c-0.3,0.6-0.7,1.1-1.1,1.7c-1-1.2-2.1-2.2-3-3.4c-1.5-2.1-3-4.2-4.3-6.4c-2.1-3.6-2.4-7.4-1.3-11.5
		c1.7-5.9,4-11.5,7.7-16.5c0.1-0.2,0.2-0.4,0.4-0.7c-6.2-1.1-12.2-3-17.8-6.1c2.2-0.1,4.4-0.3,6.4-0.4c2.1-0.2,4.2-0.7,6.3-1.6
		c-15.6-5-29.6-12.6-41.9-23.3c9.6,1.3,19.1,2.7,28.8,3c0-0.1,0-0.1,0.1-0.2c-1.6-0.4-3.2-1-4.8-1.3c-4-0.9-8-1.6-11.9-2.5
		c-6.2-1.5-11.8-4.3-17.3-7.3c-3.7-2.1-6.6-4.8-8.7-8.4c-2-3.3-3.9-6.5-6-10c0.5,0.1,0.8,0.2,1,0.3c6.4,2.4,12.8,4.8,19.2,7.3
		c5.9,2.2,11.9,4.3,18.2,5.5c0.7,0.1,1.3,0.2,2,0.1c-0.3-0.1-0.6-0.2-0.8-0.4c-7.3-2.8-14.5-5.9-21.4-9.6
		c-8.2-4.4-15.8-9.6-22.2-16.5c-3.3-3.6-6.3-7.6-8.5-12c-1.7-3.4-3.3-6.8-4.1-10.6c-0.4-2.4-0.3-4.7,0.9-7c0.1-0.1,0.2-0.3,0.3-0.5
		c1.3,1,2.7,2,4,3C273,17,289.9,26.9,307.8,35c7,3.2,13.9,6.6,20.1,11.2c4.7,3.5,8.9,7.5,11.9,12.7c2.6,4.5,4,9.4,4.7,14.5
		c0.9,6.6,0.5,13.1-0.2,19.7c0,0.2,0.1,0.6,0.2,0.7c4.2,3.3,8.5,6.2,13.6,7.7c5.6,1.6,11,0.9,16.3-1.6c3.6-1.6,6.8-3.8,9.9-6.2
		c0.2-0.1,0.4-0.6,0.3-0.9c-0.7-6.1-1-12.2-0.4-18.2c1.1-11.3,6.2-20.5,15.3-27.5c5.3-4.1,11.2-7.3,17.2-10.2
		c7-3.4,13.9-6.6,20.8-10.2c12.9-6.7,25-14.7,36.7-23.2c0.4-0.3,0.8-0.4,1.3-0.5c0.9-0.1,1.5,0.3,1.6,1.3c0.1,1.6,0.1,3.4-0.2,5
		c-1.6,8.2-5.6,15-11,21.3c-6.1,7-13.4,12.4-21.4,17c-6.7,3.9-13.7,6.7-20.8,9.6c-1.3,0.5-2.7,1.1-4.1,1.7c1.9,0.1,13-1.9,20.5-3.9
		c6.7-1.9,13.3-3.9,20.2-5.9c-1.7,2.4-3.3,4.7-5.1,7c-3.5,4.7-8.4,7.4-13.7,9.6c-6.2,2.5-12.7,4.4-19.2,6.3c-3.3,1-6.5,2-9.8,3
		c-0.2,0.1-0.4,0.1-0.6,0.3c9.5-0.3,18.9-1.7,28.3-3c-5.9,5.3-12.3,9.7-19.2,13.6c-6.9,3.9-14.2,7-21.9,9.5
		c4.3,1.9,8.7,2.1,13.1,2.3c-2.9,1.8-6,3.1-9.3,4c-3.3,0.9-6.5,1.6-9.9,2.4c0.1,0.1,0.2,0.4,0.4,0.7c2.7,5.3,5.6,10.5,7.7,16.1
		c0.3,0.7,0.5,1.5,0.7,2.2c0.5,1.6,0.4,3.2-0.2,4.8c-1.9,4.7-4.4,9.1-7.8,13c-0.3,0.4-0.7,0.7-1.2,1.3c-1.1-1.9-2.2-3.8-3.2-5.6
		c-2.1-4-3.9-8.1-6-12c-1-1.9-2.1-3.6-3.3-5.4c-0.1,0-0.2,0.1-0.3,0.1c0.1,1.3,0.2,2.5,0.4,3.7c1,6.6,2.1,13.1,3.2,19.7
		c0.1,0.9,0.7,1.9,0.4,2.7c-0.1,0.8-1.1,1.3-1.6,2.1c-1.6,2.3-3.1,4.7-4.6,7c-1.8,2.8-3.5,5.8-5.3,8.6c-0.5,0.8-1.3,1.6-1.9,2.4
		c-0.1,0-0.1,0-0.2,0c-0.3-1.4-0.7-2.9-1-4.3c-1-5.9-1.8-11.7-2.7-17.5c-0.6-3.7-1.5-7.3-2.2-11c-0.1-0.3-0.2-0.7-0.4-1
		c-2.7,11.1-3.3,22.6-6,33.6C358.2,165.6,358.1,165.6,358,165.6z M309.3,59.1c0.1,0,0.1,0,0.1,0h0.1l-0.1-0.1
		C309.4,59.1,309.4,59.1,309.3,59.1z"/>
	<path class="st0" d="M390.7,43.6c-1-1.5-2.4-1.9-3.9-2.1c-3.3-0.4-6.5-0.1-10,0.1c0.3,1.4,0.5,2.8,1,4.1c0.7,2.1,1.6,4.2,2.4,6.4
		c0.1,0.4,0.2,0.6-0.1,1c-5.1,4.9-10.2,9.8-15.3,14.7c-0.1,0.1-0.2,0.1-0.4,0.3c-4.9-5.6-10.2-10.9-16-15.6c0.5-1.9,1-3.8,1.6-5.7
		c0.7-2.8,1.3-5.7,2.4-8.4c2.9-8.2,8.8-12.2,17.4-12.2c4.6,0,9,1,13,3.4c1,0.6,1.9,1.5,2.7,2.3c1.8,1.9,3.4,4,4.6,6.4
		c0.7,1.3,1.1,2.7,0.9,4.3C391,42.8,390.9,43.1,390.7,43.6z"/>
	<path class="st1" d="M352.5,86.4c0-1.6,0-3,0-4.7c1.6-0.1,3-0.8,3.9-2.3c0.9-1.5,0.8-3,0-4.6c1.3-0.7,2.7-1.6,4-2.4
		c1,1.4,2.3,2.3,4,2.2c1.7,0,3-0.8,4-2.3c1.3,0.7,2.7,1.6,4.1,2.3c-0.7,1.6-0.8,3,0,4.5c0.8,1.5,2.1,2.2,3.9,2.3c0,1.6,0,3.1,0,4.7
		c-3.3,0.3-5.6,3.3-3.9,6.9c-1.3,0.7-2.7,1.6-4,2.3c-2.2-3.2-6.2-2.7-8,0c-1.3-0.7-2.7-1.5-4.1-2.3c0.7-1.6,0.8-3.1-0.1-4.6
		C355.5,87.2,354.2,86.5,352.5,86.4z M369.4,84c0-2.7-2.1-4.9-4.8-4.9c-2.7,0-4.9,2.1-4.9,4.7c0,2.7,2.1,4.9,4.8,4.9
		C367.2,88.9,369.4,86.7,369.4,84z"/>
	<path class="st2" d="M309.3,59.1L309.3,59.1c0.1-0.1,0.1-0.1,0.1,0H309.3C309.4,59.2,309.4,59.2,309.3,59.1z"/>
</g>
<g class="st4">
	<path d="M575,38.6V86c0,5.4-1.2,10-3.5,13.9c-2.3,3.9-5.7,6.9-10.1,9c-4.4,2.1-9.5,3.1-15.5,3.1c-9,0-16.1-2.3-21.3-6.9
		c-5.2-4.6-7.8-10.8-7.9-18.8V38.6h17.9v48.1c0.2,7.9,4,11.9,11.3,11.9c3.7,0,6.5-1,8.4-3c1.9-2,2.8-5.2,2.8-9.7V38.6H575z"/>
	<path d="M647.9,111h-17.7l-26.2-45v45h-17.8V38.6h17.8l26.2,45v-45h17.8V111z"/>
	<path d="M715.8,52.1h-22.2V111h-17.8V52.1H654V38.6h61.9V52.1z"/>
	<path d="M773.7,85.4H764V111h-17.8V38.6h29.1c8.8,0,15.6,1.9,20.6,5.7c4.9,3.8,7.4,9.2,7.4,16.1c0,5-1,9.2-3.1,12.5
		c-2.1,3.3-5.3,6-9.8,8l15.5,29.2v0.7h-19.1L773.7,85.4z M764,72h11.3c3.4,0,5.9-0.9,7.6-2.6c1.7-1.7,2.6-4.2,2.6-7.3
		c0-3.1-0.9-5.6-2.6-7.3c-1.7-1.8-4.3-2.7-7.6-2.7H764V72z"/>
	<path d="M811.2,83.6c0-5.4,1.1-10.1,3.2-14.3c2.1-4.2,5.2-7.4,9.2-9.7c4-2.3,8.7-3.4,14.1-3.4c8.2,0,14.7,2.5,19.5,7.5
		c4.7,5,7.1,11.8,7.1,20.3v0.6c0,8.4-2.4,15-7.1,20c-4.8,4.9-11.2,7.4-19.3,7.4c-7.8,0-14.1-2.3-18.9-6.9
		c-4.7-4.6-7.3-10.8-7.7-18.7L811.2,83.6z M828.3,84.7c0,5,0.8,8.6,2.4,10.9c1.6,2.3,3.9,3.5,7.1,3.5c6.1,0,9.2-4.6,9.4-13.8v-1.7
		c0-9.6-3.2-14.5-9.5-14.5c-5.7,0-8.8,4.2-9.3,12.5L828.3,84.7z"/>
	<path d="M922.8,84.6c0,8.8-1.9,15.6-5.6,20.3c-3.7,4.7-9,7.1-15.8,7.1c-5.6,0-10.1-2.2-13.5-6.5l-0.7,5.5h-15.3V34.7H889v26.9
		c3.2-3.5,7.3-5.3,12.4-5.3c6.8,0,12.1,2.4,15.9,7.2c3.7,4.8,5.6,11.6,5.6,20.3V84.6z M905.6,83.5c0-5.2-0.7-8.8-2.1-11
		c-1.4-2.2-3.6-3.3-6.5-3.3c-3.9,0-6.5,1.4-8,4.3v21.3c1.5,2.8,4.2,4.3,8.1,4.3c4,0,6.6-1.9,7.7-5.8
		C905.4,91.4,905.6,88.2,905.6,83.5z"/>
	<path d="M928.2,83.6c0-5.4,1.1-10.1,3.2-14.3c2.1-4.2,5.2-7.4,9.2-9.7c4-2.3,8.7-3.4,14.1-3.4c8.2,0,14.7,2.5,19.5,7.5
		c4.7,5,7.1,11.8,7.1,20.3v0.6c0,8.4-2.4,15-7.1,20c-4.8,4.9-11.2,7.4-19.3,7.4c-7.8,0-14.1-2.3-18.9-6.9
		c-4.7-4.6-7.3-10.8-7.7-18.7L928.2,83.6z M945.3,84.7c0,5,0.8,8.6,2.4,10.9c1.6,2.3,3.9,3.5,7.1,3.5c6.1,0,9.2-4.6,9.4-13.8v-1.7
		c0-9.6-3.2-14.5-9.5-14.5c-5.7,0-8.8,4.2-9.3,12.5L945.3,84.7z"/>
	<path d="M1008.8,43.9v13.4h9v11.6h-9v24.6c0,2,0.4,3.4,1.1,4.2c0.7,0.8,2.2,1.2,4.4,1.2c1.7,0,3.1-0.1,4.3-0.3v12
		c-3.1,1-6.3,1.4-9.7,1.4c-5.9,0-10.3-1.4-13.1-4.1c-2.8-2.7-4.2-6.8-4.2-12.4V68.9h-7V57.2h7V43.9H1008.8z"/>
	<path d="M1024.4,43.4c0-2.4,0.9-4.3,2.6-5.9c1.8-1.5,4-2.3,6.9-2.3c2.8,0,5.1,0.8,6.9,2.3c1.8,1.5,2.6,3.5,2.6,5.9
		c0,2.4-0.9,4.3-2.6,5.9c-1.8,1.5-4,2.3-6.9,2.3c-2.8,0-5.1-0.8-6.9-2.3C1025.3,47.7,1024.4,45.8,1024.4,43.4z M1042.6,111h-17.2
		V57.2h17.2V111z"/>
	<path d="M1076.4,99.1c2.4,0,4.3-0.6,5.6-1.9s2-3.1,1.9-5.3h16.1c0,5.9-2.2,10.7-6.5,14.5c-4.3,3.8-9.9,5.7-16.7,5.7
		c-8,0-14.3-2.5-18.9-7.4c-4.6-4.9-6.9-11.7-6.9-20.4v-0.7c0-5.4,1-10.2,3.1-14.4c2-4.2,5-7.4,8.9-9.6c3.9-2.2,8.4-3.4,13.7-3.4
		c7.1,0,12.8,1.9,17,5.8c4.2,3.9,6.3,9.1,6.3,15.8H1084c0-2.8-0.7-4.9-2.1-6.4c-1.4-1.5-3.3-2.2-5.6-2.2c-4.4,0-7,2.8-7.8,8.3
		c-0.2,1.8-0.4,4.2-0.4,7.3c0,5.4,0.7,9.1,2,11.2C1071.4,98,1073.5,99.1,1076.4,99.1z"/>
	<path d="M1136,95.9c0-1.4-0.8-2.6-2.3-3.4c-1.5-0.9-4.4-1.8-8.7-2.7c-4.3-0.9-7.8-2.1-10.6-3.7c-2.8-1.5-4.9-3.3-6.4-5.5
		c-1.5-2.2-2.2-4.6-2.2-7.4c0-4.9,2.1-9,6.3-12.2c4.2-3.2,9.6-4.8,16.4-4.8c7.3,0,13.1,1.6,17.5,4.8c4.4,3.2,6.6,7.4,6.6,12.7h-17.2
		c0-4.3-2.3-6.5-7-6.5c-1.8,0-3.3,0.5-4.5,1.5c-1.2,1-1.8,2.2-1.8,3.7c0,1.5,0.7,2.7,2.2,3.6c1.5,0.9,3.9,1.7,7.1,2.3
		c3.3,0.6,6.1,1.3,8.6,2.1c8.3,2.8,12.4,7.8,12.4,15c0,4.9-2.2,8.9-6.7,12c-4.5,3.1-10.2,4.6-17.3,4.6c-4.7,0-8.9-0.8-12.6-2.5
		c-3.7-1.7-6.6-3.9-8.6-6.8c-2.1-2.8-3.1-5.8-3.1-9h16c0.1,2.5,0.9,4.3,2.5,5.4c1.6,1.1,3.7,1.7,6.3,1.7c2.3,0,4.1-0.5,5.3-1.4
		C1135.5,98.6,1136,97.4,1136,95.9z"/>
</g>
<line class="st5" x1="516.7" y1="119.5" x2="1152.6" y2="119.5"/>
</svg>
