<?xml version="1.0" encoding="utf-8"?>
<!-- Generator: Adobe Illustrator 24.3.0, SVG Export Plug-In . SVG Version: 6.00 Build 0)  -->
<svg version="1.1" id="Layer_1" xmlns="http://www.w3.org/2000/svg" xmlns:xlink="http://www.w3.org/1999/xlink" x="0px" y="0px"
	 viewBox="0 0 1404.3 1015.4" style="enable-background:new 0 0 1404.3 1015.4;" xml:space="preserve">
<style type="text/css">
	.st0{fill:#019040;}
	.st1{fill:#029041;}
	.st2{fill:#FEFEFE;}
	.st3{fill:#FCFDFD;}
</style>
<g>
	<path class="st0" d="M662.7,1015.2c-4.9-6.2-10.5-12.1-14.7-18.8c-12-19.2-23.4-38.7-35-58.1c-9.7-16.1-19-32.5-32.6-45.9
		c-1-1-1.3-3.3-1.1-4.9c5.7-32.6,11.9-65.2,17.1-97.8c3.3-20.7,5.2-41.6,7.7-62.4c-0.5-0.2-1-0.5-1.5-0.7c-1.1,1.5-2.3,2.8-3.2,4.4
		c-12.5,23.3-25,46.6-37.3,69.9c-10.3,19.5-20.4,39.2-30.7,58.8c-1.8,3.5-4.3,6.7-6.9,10.8c-6.4-7.3-13.1-13.8-18.5-21.3
		c-9.4-13.1-18.8-26.3-26.8-40.2c-13-22.5-15.5-46-7.9-71.6c10.8-36.7,24.8-71.6,47.8-102.5c0.9-1.2,1.6-2.5,2.7-4.3
		c-38.9-6.8-75.7-18.3-110.5-37.8c14-1,27-1.7,40-3c13.1-1.3,25.9-4.1,39-9.6c-96.8-31.5-184.2-78.2-260.6-145.1
		c59.7,7.9,119.2,17,179.4,19c0.1-0.4,0.2-0.8,0.3-1.2c-10-2.7-19.9-5.8-30-8c-24.7-5.4-49.6-9.8-74.2-15.6
		c-38.4-9.1-73.2-26.6-107.5-45.7c-23-12.8-41-30-54.6-52.1c-12.4-20.1-24.3-40.5-37.2-62.1c3.2,0.9,4.9,1.3,6.6,1.9
		c39.8,15,79.6,30,119.4,45c37,14,74.4,27,113.5,34c4.1,0.7,8.2,1.3,12.7,0.9c-1.8-0.8-3.5-1.5-5.3-2.2
		c-45.4-17.7-90.2-36.8-133.2-59.9c-51-27.5-98.4-59.9-138.3-102.4c-21-22.5-39.7-46.8-53.5-74.4C17.3,91.2,7.2,69.8,2.6,46.3
		C-0.3,31.4,0.6,16.8,8,3.2c0.5-1,1.2-1.9,1.9-3.2c8.5,6.3,16.8,12.4,25.1,18.5c98.8,71.9,203.6,133.4,315,183.8
		c43.5,19.7,86.2,41.2,125,69.5c29.6,21.6,55.6,46.7,74,78.9c16.1,28.1,24.8,58.7,29.1,90.6c5.4,40.9,3.2,81.8-1.4,122.6
		c-0.2,1.5,0.3,3.9,1.3,4.7c25.8,20.5,53,38.7,85,48.1c35.1,10.3,68.8,5.6,101.6-9.5c22.2-10.2,42.5-23.5,61.9-38.2
		c1.4-1,2.3-3.9,2-5.7c-4.4-37.8-6.1-75.7-2.3-113.7c7.1-70.7,38.2-127.8,95.1-171c33.3-25.3,69.8-45.2,107.2-63.5
		c43.2-21.1,86.9-41.1,129.5-63.3c80.2-41.8,155.4-91.5,228.5-144.6c2.3-1.7,5.3-3,8-3.3c5.4-0.6,9.4,2,9.6,7.8
		c0.3,10.4,0.4,21.1-1.6,31.2c-10.1,50.6-34.7,93.9-68.4,132.4c-37.9,43.4-83.6,77-133.3,105.7c-41.3,23.9-85.3,41.9-129.3,59.9
		c-8.3,3.4-16.5,6.8-25.3,10.4c11.4,1.1,80.7-11.8,127.9-24.6c41.7-11.3,83-24,125.7-36.4c-10.8,15-20.9,29.7-31.7,43.9
		c-21.9,29.1-52.3,46.1-85.3,59.5c-38.9,15.8-79.2,27.1-119.4,39.1c-20.4,6.1-40.6,12.6-60.9,19c-1.2,0.4-2.4,0.9-3.5,1.8
		c59.2-1.9,117.6-10.6,176.3-18.6c-36.6,32.9-76.7,60.6-119.7,84.5c-43,23.9-88,43.2-136,59c26.7,12,54.1,13,81.7,14.1
		c-18.1,11-37.4,19.4-57.8,25.1c-20.3,5.8-40.8,10.3-61.4,15.5c0.4,0.9,1.2,2.7,2.2,4.4c17.2,32.9,34.6,65.6,48.2,100.2
		c1.8,4.5,3.2,9.1,4.6,13.7c3,10.1,2.5,20-1.4,29.8c-11.8,29.6-27.7,56.8-48.4,81.1c-2,2.4-4.3,4.6-7.3,7.7
		c-6.9-12.2-13.9-23.5-20-35.3c-12.7-24.9-24.7-50.1-37.5-74.9c-6-11.6-13.4-22.4-20.1-33.6c-0.6,0.2-1.2,0.5-1.8,0.7
		c0.9,7.8,1.5,15.6,2.7,23.3c6.5,40.9,13.1,81.8,19.7,122.7c0.9,5.7,4,11.9,2.8,17c-1.2,4.8-7.1,8.4-10.2,13
		c-9.7,14.5-19.3,29.1-28.6,43.9c-11.1,17.8-21.7,35.8-32.9,53.6c-3.3,5.3-7.7,9.9-11.6,14.8c-0.5-0.1-1-0.1-1.5-0.2
		c-2-8.9-4.5-17.8-5.9-26.8c-5.9-36.3-11-72.7-17.2-109c-3.9-22.9-9.2-45.6-13.9-68.4c-0.4-2-1.3-4-2.4-6
		c-16.7,69.2-20.6,140.5-37.5,209.5C663.7,1014.8,663.2,1015,662.7,1015.2z M359.5,352.5c0.3,0.1,0.6,0.2,0.9,0.2
		c0.1,0,0.3-0.1,0.4-0.2c-0.2-0.1-0.4-0.3-0.6-0.4C359.9,352.1,359.7,352.3,359.5,352.5z"/>
	<path class="st0" d="M866.7,255.3c-6.2-9.4-14.9-11.8-23.9-13.1c-20.4-3-40.8-1-62.2,0.5c2.1,8.8,3.4,17.4,6.1,25.4
		c4.5,13.4,9.8,26.5,14.9,39.6c0.9,2.4,1.3,3.9-0.9,6c-31.9,30.5-63.8,61.1-95.6,91.7c-0.6,0.6-1.2,1.1-2.1,1.8
		c-30.6-35.2-63.4-67.7-99.6-96.7c3.3-11.9,6.5-23.7,9.7-35.5c4.8-17.5,8.5-35.3,14.6-52.3c18.1-50.7,54.7-75.9,108.6-76.1
		c28.7-0.1,55.8,6.3,80.6,21c6.3,3.7,11.8,9.1,16.9,14.5c11.2,11.9,21.3,24.7,28.7,39.5c4.2,8.4,7.1,17.2,5.7,26.9
		C868,250.4,867.4,252.2,866.7,255.3z"/>
	<path class="st1" d="M628.3,521.9c0-9.7,0-19.1,0-29c10.2-1,18.8-5,24.2-14.2c5.4-9.2,5.2-18.7,0.2-28.7
		c8.3-4.8,16.5-9.6,25.2-14.6c6.2,8.7,14.2,14.1,25,14c10.7-0.1,18.7-5,24.8-14.2c8.4,4.8,16.8,9.5,25.4,14.4
		c-4.7,9.5-5.2,19,0,28.2c5.3,9.3,13.6,13.8,24.6,14.5c0,9.7,0,19.3,0,29c-20.8,1.7-34.6,20.8-24.6,43.1
		c-8.3,4.8-16.5,9.6-24.8,14.4c-14-19.7-38.5-17.3-49.9,0.2c-8.3-4.7-16.6-9.4-25.3-14.3c4.7-9.6,5.1-19.2-0.4-28.5
		C647.5,526.8,638.9,522.6,628.3,521.9z M733.4,507.3c0-16.8-13.2-30.3-29.8-30.3c-16.9-0.1-30.4,13.1-30.5,29.6
		c-0.1,17.1,13,30.4,30.1,30.5C720,537.1,733.3,524,733.4,507.3z"/>
	<path class="st2" d="M359.5,352.5c0.2-0.1,0.4-0.4,0.6-0.3c0.2,0,0.4,0.2,0.6,0.4c-0.1,0.1-0.3,0.2-0.4,0.2
		C360.1,352.6,359.8,352.5,359.5,352.5z"/>
	<path class="st3" d="M733.4,507.3c0,16.7-13.3,29.8-30.3,29.8c-17,0-30.2-13.4-30.1-30.5c0.1-16.6,13.7-29.7,30.5-29.6
		C720.2,477,733.4,490.5,733.4,507.3z"/>
</g>
</svg>
